Coordinates
version=1
nRows=38
nColumns=12
inDegrees=yes

Units are S.I. units (second, meters, Newtons, ...)
Angles are in degrees

endheader
time	SC_y	SC_z	SC_x	AC_y	AC_z	AC_x	GH_y	GH_z	GH_yy	EL_x	PS_y
       0.0               -28.2          16.54          58.16          42.61         -17.59         -17.25         -55.81          40.05         -83.75          43.81          72.39
   0.02225               -28.2          16.54          58.16          42.61         -17.59         -17.24         -55.78          40.06         -83.73          43.81           72.4
    0.0445              -28.21          16.54          58.16          42.61         -17.59         -17.24         -55.75          40.06          -83.7          43.82          72.41
   0.06676              -28.21          16.55          58.16          42.61         -17.59         -17.23         -55.71          40.06         -83.68          43.82          72.42
   0.08901              -28.21          16.55          58.16          42.61         -17.59         -17.23         -55.67          40.06         -83.65          43.83          72.43
    0.1113              -28.21          16.55          58.15          42.61         -17.59         -17.23         -55.62          40.06         -83.62          43.84          72.44
    0.1335              -28.21          16.56          58.15          42.61         -17.59         -17.22         -55.58          40.06         -83.59          43.84          72.45
    0.1558              -28.22          16.56          58.15          42.61          -17.6         -17.21         -55.53          40.06         -83.56          43.85          72.46
     0.178              -28.22          16.56          58.14          42.61          -17.6         -17.21         -55.47          40.06         -83.53          43.86          72.47
    0.2003              -28.22          16.57          58.14          42.61          -17.6          -17.2         -55.42          40.06         -83.49          43.87          72.49
    0.2225              -28.22          16.57          58.14          42.61          -17.6          -17.2         -55.36          40.06         -83.45          43.88           72.5
    0.2448              -28.23          16.58          58.13           42.6          -17.6         -17.19         -55.29          40.07         -83.41          43.89          72.52
     0.267              -28.23          16.58          58.13           42.6          -17.6         -17.18         -55.22          40.07         -83.36           43.9          72.53
    0.2893              -28.23          16.59          58.13           42.6          -17.6         -17.17         -55.14          40.07         -83.31          43.91          72.55
    0.3115              -28.23           16.6          58.12           42.6          -17.6         -17.17         -55.06          40.07         -83.26          43.92          72.57
    0.3338              -28.24           16.6          58.12           42.6          -17.6         -17.16         -54.97          40.07          -83.2          43.93          72.59
     0.356              -28.24          16.61          58.11           42.6          -17.6         -17.15         -54.87          40.07         -83.14          43.95          72.62
    0.3783              -28.25          16.62           58.1           42.6          -17.6         -17.13         -54.77          40.08         -83.07          43.96          72.64
    0.4005              -28.25          16.63           58.1           42.6          -17.6         -17.12         -54.65          40.08          -83.0          43.98          72.67
    0.4228              -28.26          16.64          58.09           42.6          -17.6         -17.11         -54.52          40.08         -82.92           44.0           72.7
     0.445              -28.26          16.65          58.08           42.6          -17.6         -17.09         -54.38          40.08         -82.83          44.02          72.73
    0.4673              -28.27          16.66          58.07           42.6         -17.61         -17.08         -54.23          40.09         -82.73          44.04          72.77
    0.4895              -28.28          16.67          58.06           42.6         -17.61         -17.06         -54.06          40.09         -82.62          44.07          72.81
    0.5118              -28.28          16.69          58.05           42.6         -17.61         -17.04         -53.87          40.09          -82.5           44.1          72.86
     0.534              -28.29           16.7          58.04           42.6         -17.61         -17.02         -53.67           40.1         -82.36          44.13          72.91
    0.5563               -28.3          16.72          58.03           42.6         -17.61         -16.99         -53.43           40.1         -82.21          44.16          72.96
    0.5785              -28.31          16.74          58.01           42.6         -17.61         -16.97         -53.17          40.11         -82.04           44.2          73.03
    0.6008              -28.33          16.77           58.0           42.6         -17.62         -16.94         -52.88          40.11         -81.86          44.24           73.1
     0.623              -28.34          16.79          57.98           42.6         -17.62          -16.9         -52.55          40.12         -81.64          44.29          73.18
    0.6453              -28.36          16.82          57.96          42.59         -17.62         -16.86         -52.17          40.13          -81.4          44.35          73.27
    0.6676              -28.37          16.85          57.93          42.59         -17.63         -16.82         -51.74          40.13         -81.12          44.41          73.37
    0.6898              -28.39          16.89           57.9          42.59         -17.63         -16.76         -51.24          40.14          -80.8          44.49          73.49
    0.7121              -28.42          16.94          57.87          42.59         -17.63          -16.7         -50.68          40.15         -80.44          44.57          73.63
    0.7343              -28.45          16.99          57.84          42.59         -17.64         -16.63         -50.01          40.17         -80.01          44.67          73.79
    0.7566              -28.48          17.05          57.79          42.59         -17.65         -16.55         -49.24          40.18         -79.51          44.78          73.97
    0.7788              -28.52          17.12          57.74          42.58         -17.65         -16.45         -48.33           40.2         -78.92          44.92          74.19
    0.8011              -28.56           17.2          57.68          42.58         -17.66         -16.34         -47.24          40.22         -78.23          45.08          74.45
    0.8233              -28.61           17.3           57.6          42.57         -17.67          -16.2         -45.94          40.25         -77.39          45.27          74.77
